<svg width="37" height="36" viewBox="0 0 37 36" fill="none" xmlns="http://www.w3.org/2000/svg">
<rect x="6" y="7" width="20" height="21" rx="1.5" fill="#5A5AFC"/>
<path fill-rule="evenodd" clip-rule="evenodd" d="M17.8765 24H16.5C15.1193 24 14 25.1193 14 26.5V27.5C14 28.7095 14.8589 29.7184 16 29.95V32C16 33.1046 16.8954 34 18 34H32C33.1046 34 34 33.1046 34 32V27.8202C34.3765 27.5553 34.5501 27.041 34.3316 26.5753L32.1272 21.8764C31.3037 20.121 29.5395 19 27.6006 19H23.3994C21.4605 19 19.6963 20.121 18.8728 21.8764L17.8765 24Z" fill="white"/>
<path fill-rule="evenodd" clip-rule="evenodd" d="M19.3867 26.0042C19.3864 25.8989 19.403 25.7911 19.4387 25.6838L20.3162 23.0513C20.7246 21.8263 21.871 21 23.1623 21H26.8377C28.129 21 29.2754 21.8263 29.6838 23.0513L30.5613 25.6838C30.597 25.7911 30.6136 25.8989 30.6133 26.0042C30.6683 26.0083 30.7225 26.0154 30.7756 26.0253C30.8478 26.0087 30.9229 26 31 26H33C33.5523 26 34 26.4477 34 27C34 27.5523 33.5523 28 33 28H32V29V29.5V32C32 32.5523 31.5523 33 31 33H30C29.4477 33 29 32.5523 29 32V31H21V32C21 32.5523 20.5523 33 20 33H19C18.4477 33 18 32.5523 18 32V29.5V29V28H17C16.4477 28 16 27.5523 16 27C16 26.4477 16.4477 26 17 26H19C19.0771 26 19.1522 26.0087 19.2244 26.0253C19.2775 26.0154 19.3317 26.0083 19.3867 26.0042Z" fill="#5A5AFC"/>
<path d="M21.7194 25.8419C21.6114 26.1657 21.8524 26.5 22.1937 26.5H27.8063C28.1476 26.5 28.3886 26.1657 28.2806 25.8419L27.6752 24.0257C27.471 23.4131 26.8978 23 26.2522 23H23.7478C23.1022 23 22.529 23.4131 22.3248 24.0257L21.7194 25.8419Z" fill="white"/>
<path fill-rule="evenodd" clip-rule="evenodd" d="M12 12C11.4477 12 11 12.4477 11 13C11 13.5523 11.4477 14 12 14H20C20.5523 14 21 13.5523 21 13C21 12.4477 20.5523 12 20 12H12ZM12 16.5C11.4477 16.5 11 16.9477 11 17.5C11 18.0523 11.4477 18.5 12 18.5H15C15.5523 18.5 16 18.0523 16 17.5C16 16.9477 15.5523 16.5 15 16.5H12Z" fill="white"/>
<rect x="11" y="4" width="10" height="4" rx="1.5" fill="#5A5AFC"/>
</svg>
