<svg width="37" height="36" viewBox="0 0 37 36" fill="none" xmlns="http://www.w3.org/2000/svg">
<rect x="7" y="6" width="20" height="22" rx="2" fill="#3589FF"/>
<path fill-rule="evenodd" clip-rule="evenodd" d="M19.3765 24H18.5C17.1193 24 16 25.1193 16 26.5V27.5C16 28.5252 16.617 29.4062 17.5 29.792V32C17.5 33.1046 18.3954 34 19.5 34H33.5C34.6046 34 35.5 33.1046 35.5 32V27.8202C35.8765 27.5553 36.0501 27.041 35.8316 26.5753L33.6272 21.8764C32.8037 20.121 31.0395 19 29.1006 19H24.8994C22.9605 19 21.1963 20.121 20.3728 21.8764L19.3765 24Z" fill="white"/>
<path fill-rule="evenodd" clip-rule="evenodd" d="M19.5 28H19C18.4477 28 18 27.5523 18 27C18 26.4477 18.4477 26 19 26H20.8867C20.8868 25.896 20.9035 25.7896 20.9387 25.6838L21.8162 23.0513C22.2246 21.8263 23.371 21 24.6623 21H28.3377C29.629 21 30.7754 21.8263 31.1838 23.0513L32.0613 25.6838C32.0965 25.7896 32.1132 25.896 32.1133 26H34C34.5523 26 35 26.4477 35 27C35 27.5523 34.5523 28 34 28H33.5V29.5V31.5C33.5 32.3284 32.8284 33 32 33C31.1716 33 30.5 32.3284 30.5 31.5V31H22.5V31.5C22.5 32.3284 21.8284 33 21 33C20.1716 33 19.5 32.3284 19.5 31.5V29.5V28Z" fill="#2B81FA"/>
<path d="M23.2649 25.3188C23.1375 25.6465 23.3792 26 23.7309 26H29.2691C29.6208 26 29.8625 25.6465 29.7351 25.3188L29.2052 23.9563C28.981 23.3798 28.4259 23 27.8072 23H25.1928C24.5741 23 24.019 23.3798 23.7948 23.9563L23.2649 25.3188Z" fill="white"/>
<path fill-rule="evenodd" clip-rule="evenodd" d="M14 11C13.4477 11 13 11.4477 13 12C13 12.5523 13.4477 13 14 13H20C20.5523 13 21 12.5523 21 12C21 11.4477 20.5523 11 20 11H14ZM13 16C13 15.4477 13.4477 15 14 15H20C20.5523 15 21 15.4477 21 16C21 16.5523 20.5523 17 20 17H14C13.4477 17 13 16.5523 13 16ZM13 20C13 19.4477 13.4477 19 14 19H16C16.5523 19 17 19.4477 17 20C17 20.5523 16.5523 21 16 21H14C13.4477 21 13 20.5523 13 20Z" fill="white"/>
</svg>
