<svg width="37" height="36" viewBox="0 0 37 36" fill="none" xmlns="http://www.w3.org/2000/svg">
<path fill-rule="evenodd" clip-rule="evenodd" d="M9.53822 10.0407L7 16H3.75C3.33579 16 3 16.3358 3 16.75C3 17.9926 4.00736 19 5.25 19H6V23V24V28C6 29.1046 6.89543 30 8 30H10C11.1046 30 12 29.1046 12 28V26H25V28C25 29.1046 25.8954 30 27 30H29C30.1046 30 31 29.1046 31 28V24V23V19H31.75C32.9926 19 34 17.9926 34 16.75C34 16.3358 33.6642 16 33.25 16H30L27.4618 10.0407C26.6764 8.19677 24.8659 7 22.8617 7H14.1383C12.1341 7 10.3236 8.19677 9.53822 10.0407Z" fill="#1CB8B8"/>
<path fill-rule="evenodd" clip-rule="evenodd" d="M10 20C9.44771 20 9 20.4477 9 21V22C9 22.5523 9.44771 23 10 23H12C12.5523 23 13 22.5523 13 22V21C13 20.4477 12.5523 20 12 20H10ZM25 20C24.4477 20 24 20.4477 24 21V22C24 22.5523 24.4477 23 25 23H27C27.5523 23 28 22.5523 28 22V21C28 20.4477 27.5523 20 27 20H25Z" fill="white"/>
<path d="M11.5769 14.6154C11.3025 15.2741 11.7864 16 12.5 16H24.5C25.2136 16 25.6975 15.2741 25.4231 14.6154L24.2692 11.8462C23.8034 10.7282 22.7111 10 21.5 10H15.5C14.2889 10 13.1966 10.7282 12.7308 11.8462L11.5769 14.6154Z" fill="white"/>
</svg>
