<svg width="37" height="36" viewBox="0 0 37 36" fill="none" xmlns="http://www.w3.org/2000/svg">
<rect x="7" y="6" width="20" height="22" rx="2" fill="#3589FF"/>
<path fill-rule="evenodd" clip-rule="evenodd" d="M14 12C13.4477 12 13 12.4477 13 13C13 13.5523 13.4477 14 14 14H20C20.5523 14 21 13.5523 21 13C21 12.4477 20.5523 12 20 12H14ZM13 17C13 16.4477 13.4477 16 14 16H20C20.5523 16 21 16.4477 21 17C21 17.5523 20.5523 18 20 18H14C13.4477 18 13 17.5523 13 17ZM13 21C13 20.4477 13.4477 20 14 20H16C16.5523 20 17 20.4477 17 21C17 21.5523 16.5523 22 16 22H14C13.4477 22 13 21.5523 13 21Z" fill="white"/>
<path d="M18 31.5C18 28.1863 20.6863 25.5 24 25.5H28C31.3137 25.5 34 28.1863 34 31.5V32.5C34 33.0523 33.5523 33.5 33 33.5H19C18.4477 33.5 18 33.0523 18 32.5V31.5Z" fill="white"/>
<circle cx="26" cy="23.5" r="4.5" fill="white"/>
<path d="M20.5 31.6667C20.5 29.3655 22.3655 27.5 24.6667 27.5H27.3333C29.6345 27.5 31.5 29.3655 31.5 31.6667C31.5 32.1269 31.1269 32.5 30.6667 32.5H21.3333C20.8731 32.5 20.5 32.1269 20.5 31.6667Z" fill="#2B81FA"/>
<circle cx="26" cy="23.5" r="2.5" fill="#2B81FA"/>
</svg>
