<svg width="37" height="36" viewBox="0 0 37 36" fill="none" xmlns="http://www.w3.org/2000/svg">
<rect x="8" y="7" width="20" height="22" rx="1.5" fill="#5A5AFC"/>
<path fill-rule="evenodd" clip-rule="evenodd" d="M14 13.5C14 12.9477 14.4477 12.5 15 12.5H21C21.5523 12.5 22 12.9477 22 13.5C22 14.0523 21.5523 14.5 21 14.5H15C14.4477 14.5 14 14.0523 14 13.5ZM14 21.5C14 20.9477 14.4477 20.5 15 20.5H17C17.5523 20.5 18 20.9477 18 21.5C18 22.0523 17.5523 22.5 17 22.5H15C14.4477 22.5 14 22.0523 14 21.5ZM15 16.5C14.4477 16.5 14 16.9477 14 17.5C14 18.0523 14.4477 18.5 15 18.5H21C21.5523 18.5 22 18.0523 22 17.5C22 16.9477 21.5523 16.5 21 16.5H15Z" fill="white"/>
<rect x="21" y="22" width="12" height="12" rx="2" fill="white"/>
<path d="M23 25C23 24.4477 23.4477 24 24 24H29.0858C29.9767 24 30.4229 25.0771 29.7929 25.7071L24.7071 30.7929C24.0771 31.4229 23 30.9767 23 30.0858V25Z" fill="#5A5AFC"/>
</svg>
