<svg width="37" height="36" viewBox="0 0 37 36" fill="none" xmlns="http://www.w3.org/2000/svg">
<path fill-rule="evenodd" clip-rule="evenodd" d="M6.21296 15.5L8.53822 10.0407C9.3236 8.19677 11.1341 7 13.1383 7H20.8617C22.8659 7 24.6764 8.19677 25.4618 10.0407L27.787 15.5H31.3C31.6866 15.5 32 15.8134 32 16.2C32 17.7464 30.7464 19 29.2 19H29V24.5H11V26.5C11 28.1569 9.65685 29.5 8 29.5C6.34315 29.5 5 28.1569 5 26.5V24.5V23.5V19H4.625C3.17525 19 2 17.8247 2 16.375C2 15.8918 2.39175 15.5 2.875 15.5H6.21296Z" fill="#1CB8B8"/>
<path d="M8 20C8 19.4477 8.44772 19 9 19H11C11.5523 19 12 19.4477 12 20V21C12 21.5523 11.5523 22 11 22H9C8.44772 22 8 21.5523 8 21V20Z" fill="white"/>
<path d="M10.5769 14.6154C10.3025 15.2741 10.7864 16 11.5 16H22.5C23.2136 16 23.6975 15.2741 23.4231 14.6154L22.2692 11.8462C21.8034 10.7282 20.7111 10 19.5 10H14.5C13.2889 10 12.1966 10.7282 11.7308 11.8462L10.5769 14.6154Z" fill="white"/>
<path d="M24.5 22C24.5 20.3431 25.8431 19 27.5 19H29.5C31.1569 19 32.5 20.3431 32.5 22V24C32.5 25.6569 31.1569 27 29.5 27H27.5C25.8431 27 24.5 25.6569 24.5 24V22Z" fill="white"/>
<path fill-rule="evenodd" clip-rule="evenodd" d="M26.5 22C26.5 21.4477 26.9477 21 27.5 21H28.5C29.0523 21 29.5 21.4477 29.5 22V26H31C32.1046 26 33 26.8954 33 28V30H23V28C23 26.8954 23.8954 26 25 26H26.5V22ZM22 32C22 31.4477 22.4477 31 23 31H33C33.5523 31 34 31.4477 34 32C34 32.5523 33.5523 33 33 33H23C22.4477 33 22 32.5523 22 32Z" fill="#1CB8B8"/>
</svg>
