<svg width="37" height="36" viewBox="0 0 37 36" fill="none" xmlns="http://www.w3.org/2000/svg">
<path d="M7 10.5H28.5C29.3284 10.5 30 11.1716 30 12V27C30 27.8284 29.3284 28.5 28.5 28.5H8.5C7.67157 28.5 7 27.8284 7 27V10.5Z" fill="#FF9216"/>
<path d="M7 7C7 6.17157 7.67157 5.5 8.5 5.5H16C17.6569 5.5 19 6.84315 19 8.5V9H7V7Z" fill="#FF9216"/>
<path fill-rule="evenodd" clip-rule="evenodd" d="M10 13.5C9.44772 13.5 9 13.9477 9 14.5C9 15.0523 9.44772 15.5 10 15.5H12C12.5523 15.5 13 15.0523 13 14.5C13 13.9477 12.5523 13.5 12 13.5H10ZM22 22.5C21.4477 22.5 21 22.9477 21 23.5C21 24.0523 21.4477 24.5 22 24.5H26C26.5523 24.5 27 24.0523 27 23.5C27 22.9477 26.5523 22.5 26 22.5H22Z" fill="white"/>
</svg>
